<svg width="32" height="32" viewBox="0 0 32 32" fill="none" xmlns="http://www.w3.org/2000/svg">
<rect width="32" height="32" fill="white"/>
<path d="M28.7273 1.88239H2.36364C1.61052 1.88239 1 2.47495 1 3.20591V28.7941C1 29.5251 1.61052 30.1177 2.36364 30.1177H28.7273C29.4804 30.1177 30.0909 29.5251 30.0909 28.7941V3.20591C30.0909 2.47495 29.4804 1.88239 28.7273 1.88239Z" fill="#423592"/>
<path d="M24.1285 31L17.8885 22.3177C17.6266 22.3459 17.2339 22.36 16.7103 22.36H9.81573V31H4.14301V1.35297H16.7103C19.3575 1.35297 21.6557 1.7765 23.6048 2.62356C25.583 3.47062 27.0957 4.68473 28.143 6.26591C29.1903 7.84709 29.7139 9.72473 29.7139 11.8989C29.7139 14.1294 29.1466 16.0494 28.0121 17.6589C26.9066 19.2683 25.3066 20.4683 23.2121 21.2589L30.2375 31H24.1285ZM23.9975 11.8989C23.9975 10.0071 23.3575 8.55297 22.0775 7.5365C20.7975 6.52003 18.9212 6.01179 16.4485 6.01179H9.81573V17.8283H16.4485C18.9212 17.8283 20.7975 17.32 22.0775 16.3036C23.3575 15.2589 23.9975 13.7906 23.9975 11.8989Z" fill="#782D92"/>
<path d="M10.3024 15.8059C11.4781 15.947 12.3751 16.3353 12.9933 16.9706C13.6115 17.6059 13.9205 18.4 13.9205 19.3529C13.9205 20.0705 13.7326 20.7235 13.3569 21.3118C12.9811 21.9 12.4115 22.3706 11.6478 22.7235C10.8963 23.0647 9.97507 23.2353 8.88416 23.2353C7.97507 23.2353 7.09628 23.1118 6.2478 22.8647C5.41143 22.6059 4.69628 22.253 4.10234 21.8059L5.12052 20.0235C5.58112 20.4 6.1387 20.7 6.79325 20.9235C7.45991 21.1353 8.14477 21.2412 8.8478 21.2412C9.68416 21.2412 10.3387 21.0764 10.8115 20.747C11.2963 20.4058 11.5387 19.947 11.5387 19.3706C11.5387 18.7941 11.3084 18.347 10.8478 18.0294C10.3993 17.7 9.7084 17.5353 8.77507 17.5353H7.61143V15.9647L10.5024 12.6294H4.72052V10.7059H13.3933V12.2412L10.3024 15.8059ZM26.812 20.2529H24.5575V23.0588H22.2665V20.2529H15.2847V18.6647L21.5575 10.7059H24.0847L18.1756 18.3118H22.3393V15.8235H24.5575V18.3118H26.812V20.2529Z" fill="white"/>
</svg>
