<svg width="32" height="32" viewBox="0 0 32 32" fill="none" xmlns="http://www.w3.org/2000/svg">
<rect x="0.666672" y="1.13562" width="30" height="30" rx="1.5" fill="#423592"/>
<path d="M24.4756 32L17.9691 22.6725C17.6961 22.7028 17.2866 22.718 16.7406 22.718H9.55162V32H3.63662V0.149998H16.7406C19.501 0.149998 21.8973 0.604998 23.9296 1.515C25.9923 2.425 27.5696 3.72933 28.6616 5.428C29.7536 7.12667 30.2996 9.14383 30.2996 11.4795C30.2996 13.8758 29.7081 15.9385 28.5251 17.6675C27.3725 19.3965 25.7041 20.6857 23.5201 21.535L30.8456 32H24.4756ZM24.3391 11.4795C24.3391 9.44717 23.6718 7.885 22.3371 6.793C21.0025 5.701 19.046 5.155 16.4676 5.155H9.55162V17.8495H16.4676C19.046 17.8495 21.0025 17.3035 22.3371 16.2115C23.6718 15.0892 24.3391 13.5118 24.3391 11.4795Z" fill="#782D92"/>
<path d="M10.599 14.9855C11.86 15.1415 12.822 15.5705 13.485 16.2725C14.148 16.9745 14.4795 17.852 14.4795 18.905C14.4795 19.698 14.278 20.4195 13.875 21.0695C13.472 21.7195 12.861 22.2395 12.042 22.6295C11.236 23.0065 10.248 23.195 9.07799 23.195C8.10299 23.195 7.16049 23.0585 6.25049 22.7855C5.35349 22.4995 4.58649 22.1095 3.94949 21.6155L5.04149 19.646C5.53549 20.062 6.13349 20.3935 6.83549 20.6405C7.55049 20.8745 8.28499 20.9915 9.03899 20.9915C9.93599 20.9915 10.638 20.8095 11.145 20.4455C11.665 20.0685 11.925 19.5615 11.925 18.9245C11.925 18.2875 11.678 17.7935 11.184 17.4425C10.703 17.0785 9.96199 16.8965 8.96099 16.8965H7.71299V15.161L10.8135 11.4755H4.61249V9.35H13.914V11.0465L10.599 14.9855ZM28.3056 19.8995H25.8876V23H23.4306V19.8995H15.9426V18.1445L22.6701 9.35H25.3806L19.0431 17.7545H23.5086V15.005H25.8876V17.7545H28.3056V19.8995Z" fill="white"/>
</svg>
